<?xml version="1.0" encoding="utf-8" ?>
<svg baseProfile="full" height="600px" version="1.1" width="800px" xmlns="http://www.w3.org/2000/svg" xmlns:ev="http://www.w3.org/2001/xml-events" xmlns:xlink="http://www.w3.org/1999/xlink"><defs /><path d="M210,100 C 300,80 240,210 200,200" stroke-width="3" style="stroke: #ff0000; fill:none;" /><path d="M190,100 C 80,80 170,210 200,200" stroke-width="3" style="stroke: #ff0000; fill:none;" /><line stroke-width="3" style="stroke: #20C319; fill:none;" x1="190" x2="150" y1="100" y2="80" /><line stroke-width="3" style="stroke: #20C319; fill:none;" x1="150" x2="190" y1="80" y2="90" /><line stroke-width="3" style="stroke: #20C319; fill:none;" x1="190" x2="160" y1="90" y2="70" /><line stroke-width="3" style="stroke: #20C319; fill:none;" x1="160" x2="200" y1="70" y2="80" /><line stroke-width="3" style="stroke: #20C319; fill:none;" x1="200" x2="240" y1="80" y2="70" /><line stroke-width="3" style="stroke: #20C319; fill:none;" x1="240" x2="210" y1="70" y2="90" /><line stroke-width="3" style="stroke: #20C319; fill:none;" x1="210" x2="250" y1="90" y2="80" /><line stroke-width="3" style="stroke: #20C319; fill:none;" x1="250" x2="210" y1="80" y2="100" /><path d="M 150,120 Q 152,130 155,120" fill="none" stroke="#7F1824" stroke-width="1" /><path d="M 150,140 Q 152,150 155,140" fill="none" stroke="#7F1824" stroke-width="1" /><path d="M 150,160 Q 152,170 155,160" fill="none" stroke="#7F1824" stroke-width="1" /><path d="M 160,120 Q 162,130 165,120" fill="none" stroke="#7F1824" stroke-width="1" /><path d="M 160,140 Q 162,150 165,140" fill="none" stroke="#7F1824" stroke-width="1" /><path d="M 160,160 Q 162,170 165,160" fill="none" stroke="#7F1824" stroke-width="1" /><path d="M 170,120 Q 172,130 175,120" fill="none" stroke="#7F1824" stroke-width="1" /><path d="M 170,140 Q 172,150 175,140" fill="none" stroke="#7F1824" stroke-width="1" /><path d="M 170,160 Q 172,170 175,160" fill="none" stroke="#7F1824" stroke-width="1" /><path d="M 180,120 Q 182,130 185,120" fill="none" stroke="#7F1824" stroke-width="1" /><path d="M 180,140 Q 182,150 185,140" fill="none" stroke="#7F1824" stroke-width="1" /><path d="M 180,160 Q 182,170 185,160" fill="none" stroke="#7F1824" stroke-width="1" /><path d="M 190,120 Q 192,130 195,120" fill="none" stroke="#7F1824" stroke-width="1" /><path d="M 190,140 Q 192,150 195,140" fill="none" stroke="#7F1824" stroke-width="1" /><path d="M 190,160 Q 192,170 195,160" fill="none" stroke="#7F1824" stroke-width="1" /><path d="M 200,120 Q 202,130 205,120" fill="none" stroke="#7F1824" stroke-width="1" /><path d="M 200,140 Q 202,150 205,140" fill="none" stroke="#7F1824" stroke-width="1" /><path d="M 200,160 Q 202,170 205,160" fill="none" stroke="#7F1824" stroke-width="1" /><path d="M 210,120 Q 212,130 215,120" fill="none" stroke="#7F1824" stroke-width="1" /><path d="M 210,140 Q 212,150 215,140" fill="none" stroke="#7F1824" stroke-width="1" /><path d="M 210,160 Q 212,170 215,160" fill="none" stroke="#7F1824" stroke-width="1" /><path d="M 220,120 Q 222,130 225,120" fill="none" stroke="#7F1824" stroke-width="1" /><path d="M 220,140 Q 222,150 225,140" fill="none" stroke="#7F1824" stroke-width="1" /><path d="M 220,160 Q 222,170 225,160" fill="none" stroke="#7F1824" stroke-width="1" /><path d="M 230,120 Q 232,130 235,120" fill="none" stroke="#7F1824" stroke-width="1" /><path d="M 230,140 Q 232,150 235,140" fill="none" stroke="#7F1824" stroke-width="1" /><path d="M 230,160 Q 232,170 235,160" fill="none" stroke="#7F1824" stroke-width="1" /><path d="M 240,120 Q 242,130 245,120" fill="none" stroke="#7F1824" stroke-width="1" /><path d="M 240,140 Q 242,150 245,140" fill="none" stroke="#7F1824" stroke-width="1" /><path d="M 240,160 Q 242,170 245,160" fill="none" stroke="#7F1824" stroke-width="1" /><text x="220" y="220">a strawberry</text></svg>